<svg preserveAspectRatio="none" width="100%" height="100%" overflow="visible" style="display: block;" viewBox="0 0 75.4353 71.0561" fill="none" xmlns="http://www.w3.org/2000/svg">
<g id="Group 70">
<path id="Vector" d="M21.1163 9.3524C20.2191 8.64732 13.2897 14.0658 9.48989 22.6168C8.53767 24.7632 5.30081 32.2731 7.23398 41.672C9.99815 55.101 21.4751 64.4462 30.7203 65.8195C33.662 66.2579 35.5234 65.6343 36.5299 65.1846C40.2306 63.5284 42.9318 58.9989 43.0383 55.1372C43.3268 44.8798 25.2073 38.7267 19.4562 25.4803C17.452 20.8653 17.8757 17.5183 18.0092 16.643C18.7084 12.092 21.5654 9.7071 21.1163 9.3524Z" fill="url(#paint0_linear_40000074_39)"/>
<path id="Vector_2" d="M21.1164 9.35238C20.2192 8.6473 13.2898 14.0658 9.49005 22.6168C8.53784 24.7632 5.30097 32.2731 7.23415 41.672C9.99832 55.101 21.4753 64.4462 30.7205 65.8194C33.6621 66.2578 35.5236 65.6343 36.5301 65.1846C40.2308 63.5283 42.932 58.9988 43.0384 55.1372C43.327 44.8798 25.2075 38.7267 19.4564 25.4803C17.4522 20.8653 17.8759 17.5182 18.0094 16.6429C18.7086 12.092 21.5656 9.70708 21.1164 9.35238Z" fill="url(#paint1_linear_40000074_39)"/>
<path id="Vector_3" d="M54.1766 61.7418C55.0782 62.4457 62.0605 57.0131 65.8986 48.4518C66.8605 46.3028 70.1304 38.784 68.2009 29.3841C65.442 15.9537 53.9085 6.62366 44.6073 5.26545C41.6479 4.83182 39.7736 5.45878 38.76 5.91038C35.0332 7.57364 32.3073 12.1098 32.1937 15.9733C31.886 26.2359 50.1093 32.3611 55.8743 45.6038C57.8834 50.2176 57.4514 53.5668 57.3155 54.4427C56.6042 58.9969 53.7252 61.3877 54.1766 61.7418Z" fill="url(#paint2_linear_40000074_39)"/>
<path id="Vector_4" d="M54.1766 61.7418C55.0782 62.4457 62.0605 57.0131 65.8986 48.4518C66.8605 46.3028 70.1304 38.784 68.2009 29.3841C65.442 15.9537 53.9085 6.62366 44.6073 5.26545C41.6479 4.83182 39.7736 5.45878 38.76 5.91038C35.0332 7.57364 32.3073 12.1098 32.1937 15.9733C31.886 26.2359 50.1093 32.3611 55.8743 45.6038C57.8834 50.2175 57.4514 53.5668 57.3155 54.4427C56.6042 58.9969 53.7252 61.3877 54.1766 61.7418Z" fill="url(#paint3_linear_40000074_39)"/>
</g>
<defs>
<linearGradient id="paint0_linear_40000074_39" x1="7.52367" y1="42.9597" x2="37.9656" y2="34.8064" gradientUnits="userSpaceOnUse">
<stop stop-color="#FFC200"/>
<stop offset="0.59" stop-color="#66D56B"/>
<stop offset="1" stop-color="#00E2B3"/>
</linearGradient>
<linearGradient id="paint1_linear_40000074_39" x1="3.17159" y1="7.51357" x2="11.063" y2="60.5889" gradientUnits="userSpaceOnUse">
<stop stop-color="#E9E9F0" stop-opacity="0.25"/>
<stop offset="1" stop-color="#E9E9F0" stop-opacity="0"/>
</linearGradient>
<linearGradient id="paint2_linear_40000074_39" x1="37.2658" y1="36.3114" x2="67.9091" y2="28.1042" gradientUnits="userSpaceOnUse">
<stop stop-color="#FF00ED"/>
<stop offset="0.28" stop-color="#FF0CAE"/>
<stop offset="0.92" stop-color="#FF2C14"/>
<stop offset="1" stop-color="#FF3100"/>
</linearGradient>
<linearGradient id="paint3_linear_40000074_39" x1="43.3703" y1="1.91862" x2="51.3426" y2="66.8475" gradientUnits="userSpaceOnUse">
<stop stop-color="#FF10EE" stop-opacity="0"/>
<stop offset="1" stop-color="#E9E9F0" stop-opacity="0.25"/>
</linearGradient>
</defs>
</svg>
