<svg preserveAspectRatio="none" width="100%" height="100%" overflow="visible" style="display: block;" viewBox="0 0 75.4352 71.0558" fill="none" xmlns="http://www.w3.org/2000/svg">
<g id="Group 70">
<path id="Vector" d="M21.1163 9.35233C20.2191 8.64725 13.2897 14.0657 9.4899 22.6167C8.53768 24.7632 5.30081 32.273 7.23399 41.672C9.99816 55.101 21.4751 64.4462 30.7203 65.8194C33.662 66.2578 35.5234 65.6343 36.5299 65.1846C40.2306 63.5283 42.9318 58.9988 43.0383 55.1372C43.3268 44.8798 25.2073 38.7267 19.4562 25.4802C17.452 20.8652 17.8757 17.5182 18.0092 16.6429C18.7084 12.0919 21.5654 9.70702 21.1163 9.35233Z" fill="url(#paint0_linear_40000060_261)"/>
<path id="Vector_2" d="M21.1164 9.35231C20.2192 8.64723 13.2898 14.0657 9.49006 22.6167C8.53785 24.7631 5.30098 32.273 7.23415 41.6719C9.99833 55.1009 21.4753 64.4461 30.7205 65.8194C33.6621 66.2578 35.5236 65.6342 36.5301 65.1845C40.2308 63.5283 42.932 58.9988 43.0385 55.1371C43.327 44.8797 25.2075 38.7266 19.4564 25.4802C17.4522 20.8652 17.8759 17.5182 18.0094 16.6429C18.7086 12.0919 21.5656 9.707 21.1164 9.35231Z" fill="url(#paint1_linear_40000060_261)"/>
<path id="Vector_3" d="M54.1766 61.7418C55.0783 62.4456 62.0605 57.013 65.8986 48.4517C66.8605 46.3027 70.1304 38.7839 68.201 29.384C65.442 15.9536 53.9085 6.62359 44.6073 5.26538C41.6479 4.83174 39.7736 5.45871 38.76 5.91031C35.0332 7.57357 32.3073 12.1097 32.1937 15.9733C31.886 26.2358 50.1094 32.3611 55.8743 45.6037C57.8834 50.2175 57.4514 53.5667 57.3155 54.4426C56.6042 58.9969 53.7252 61.3877 54.1766 61.7418Z" fill="url(#paint2_linear_40000060_261)"/>
<path id="Vector_4" d="M54.1766 61.7418C55.0783 62.4456 62.0605 57.013 65.8986 48.4517C66.8605 46.3027 70.1304 38.7839 68.201 29.384C65.442 15.9536 53.9085 6.62359 44.6073 5.26538C41.6479 4.83174 39.7736 5.45871 38.76 5.91031C35.0332 7.57357 32.3073 12.1097 32.1937 15.9733C31.886 26.2358 50.1094 32.3611 55.8743 45.6037C57.8834 50.2175 57.4514 53.5667 57.3155 54.4426C56.6042 58.9969 53.7252 61.3877 54.1766 61.7418Z" fill="url(#paint3_linear_40000060_261)"/>
</g>
<defs>
<linearGradient id="paint0_linear_40000060_261" x1="7.52367" y1="42.9596" x2="37.9656" y2="34.8063" gradientUnits="userSpaceOnUse">
<stop stop-color="#FFC200"/>
<stop offset="0.59" stop-color="#66D56B"/>
<stop offset="1" stop-color="#00E2B3"/>
</linearGradient>
<linearGradient id="paint1_linear_40000060_261" x1="3.1716" y1="7.51349" x2="11.063" y2="60.5888" gradientUnits="userSpaceOnUse">
<stop stop-color="#E9E9F0" stop-opacity="0.25"/>
<stop offset="1" stop-color="#E9E9F0" stop-opacity="0"/>
</linearGradient>
<linearGradient id="paint2_linear_40000060_261" x1="37.2658" y1="36.3114" x2="67.9091" y2="28.1041" gradientUnits="userSpaceOnUse">
<stop stop-color="#FF00ED"/>
<stop offset="0.28" stop-color="#FF0CAE"/>
<stop offset="0.92" stop-color="#FF2C14"/>
<stop offset="1" stop-color="#FF3100"/>
</linearGradient>
<linearGradient id="paint3_linear_40000060_261" x1="43.3703" y1="1.91854" x2="51.3426" y2="66.8474" gradientUnits="userSpaceOnUse">
<stop stop-color="#FF10EE" stop-opacity="0"/>
<stop offset="1" stop-color="#E9E9F0" stop-opacity="0.25"/>
</linearGradient>
</defs>
</svg>
