<svg preserveAspectRatio="none" width="100%" height="100%" overflow="visible" style="display: block;" viewBox="0 0 132.366 100.88" fill="none" xmlns="http://www.w3.org/2000/svg">
<path id="Vector 33" d="M63.016 99.8804C63.016 99.7287 63.016 99.5771 63.016 82.2961C63.016 65.0152 63.016 30.6096 63.7795 13.7005C64.5429 -3.20854 66.0699 -1.57846 74.7348 8.93457C99.2693 38.7016 116.859 60.1751 120.16 63.9719C122.114 66.2201 124.144 69.5262 124.104 71.4071C124.064 73.288 121.766 73.747 119.581 73.7024C117.397 73.6578 115.395 73.0956 96.2016 67.3646C77.0088 61.6336 40.6859 50.7509 21.1753 44.8443C1.66463 38.9378 0.0669066 38.3371 1.32189 38.0064C2.57687 37.6758 6.73296 37.6333 23.5032 32.5857C40.2735 27.5381 69.532 17.4866 87.6099 11.6826C111.509 4.00967 122.8 2.95871 129.908 3.56982C132.311 3.77643 131.451 6.92739 129.442 9.61873C124.794 15.8448 106.806 37.8374 85.0802 68.1738C75.6977 80.3792 71.929 85.1284 67.9333 90.661C66.1604 92.9092 64.9045 94.0215 63.6105 95.1675" stroke="var(--stroke-0, #BFFF00)" stroke-width="2" stroke-linecap="round" stroke-linejoin="round"/>
</svg>
