<svg preserveAspectRatio="none" width="100%" height="100%" overflow="visible" style="display: block;" viewBox="0 0 84.252 107.622" fill="none" xmlns="http://www.w3.org/2000/svg">
<path id="Vector 37" d="M3.78187 106.622C4.06703 100.877 6.1972 82.8433 13.096 61.994C25.172 25.4978 37.9222 2.68913 39.702 1.52768C46.7851 -3.09441 42.5629 23.3834 43.7722 55.9174C44.2212 67.996 47.8035 78.8029 45.7984 86.8759C45.0035 90.0764 19.5872 63.1491 2.99747 31.0026C-12.8399 0.314033 70.5582 30.3692 75.9898 31.6957C78.7128 32.3606 81.4194 32.7895 82.5756 34.1468C83.7318 35.5041 83.2687 37.7207 82.2181 39.3358C76.6911 47.8327 53.5572 54.1742 21.6834 78.9702C15.6535 84.0795 13.9809 85.8613 12.7472 87.4972C11.5134 89.133 10.7692 90.5689 9.50596 95.5355" stroke="var(--stroke-0, #BFFF00)" stroke-width="2" stroke-linecap="round" stroke-linejoin="round"/>
</svg>
