<svg preserveAspectRatio="none" width="100%" height="100%" overflow="visible" style="display: block;" viewBox="0 0 92.8847 63.2533" fill="none" xmlns="http://www.w3.org/2000/svg">
<g id="Frame 2981">
<path id="Vector 34" d="M16.8554 15.6596C16.8554 15.7101 16.8554 15.7607 17.7432 15.2073C18.6311 14.654 20.4068 13.4951 20.5985 12.4532C20.7903 11.4113 19.3442 10.5214 17.5908 11.2899" stroke="var(--stroke-0, #BFFF00)" stroke-width="2" stroke-linecap="round" stroke-linejoin="round"/>
<path id="Vector 35" d="M58.371 4.15038C58.4196 4.15038 58.4681 4.15038 59.0614 3.58814C59.6547 3.02591 60.7913 1.90144 58.4936 1.53348" stroke="var(--stroke-0, #BFFF00)" stroke-width="2" stroke-linecap="round" stroke-linejoin="round"/>
<path id="Vector 36" d="M1.01936 20.1889C0.833176 22.5935 1.8412 30.5094 10.4071 42.2115C21.8937 57.9036 41.4008 62.1528 56.1478 62.2528C70.897 62.3528 81.2157 47.3035 86.4435 41.4003C89.7021 34.1724 91.4816 22.8313 91.8017 12.9129C91.9519 8.55828 92.0773 5.58126 90.466 1.00027" stroke="var(--stroke-0, #BFFF00)" stroke-width="2" stroke-linecap="round" stroke-linejoin="round"/>
</g>
</svg>
