<svg width="39" height="40" viewBox="0 0 38.5858 40" fill="none" xmlns="http://www.w3.org/2000/svg">
  <path
    d="M18.7929 8.5C18.7929 8.22386 19.0168 8 19.2929 8C19.569 8.00004 19.7929 8.22388 19.7929 8.5V30.5859L29.7324 20.6465C29.9277 20.4513 30.2442 20.4512 30.4394 20.6465C30.6346 20.8417 30.6346 21.1583 30.4394 21.3535L20.1464 31.6465C20.0256 31.7673 19.7928 32 19.2928 32C18.7928 32 18.7928 32 19.2928 32C18.7928 32 19.1223 32 19.2928 32C18.7928 32 18.5598 31.7668 18.4394 31.6465L8.14645 21.3535C7.95118 21.1583 7.95118 20.8417 8.14645 20.6465C8.34171 20.4512 8.65822 20.4512 8.85348 20.6465L18.7929 30.5859V8.5Z"
    fill="currentColor"
    stroke="currentColor"
    stroke-width="0.75"
    stroke-linejoin="round"
  />
  <path
    d="M19.2928 32C19.7928 32 20.0256 31.7673 20.1464 31.6465L30.4394 21.3535C30.6346 21.1583 30.6346 20.8417 30.4394 20.6465C30.2442 20.4512 29.9277 20.4513 29.7324 20.6465L19.7929 30.5859V8.5C19.7929 8.22388 19.569 8.00004 19.2929 8C19.0168 8 18.7929 8.22386 18.7929 8.5V30.5859L8.85348 20.6465C8.65822 20.4512 8.34171 20.4512 8.14645 20.6465C7.95118 20.8417 7.95118 21.1583 8.14645 21.3535L18.4394 31.6465C18.5598 31.7668 18.7928 32 19.2928 32ZM19.2928 32C18.7928 32 18.7928 32 19.2928 32ZM19.2928 32C19.1223 32 18.7928 32 19.2928 32Z"
    stroke="currentColor"
    stroke-width="1"
    stroke-linecap="round"
  />
</svg>
